{
	"patcher" : 	{
		"fileversion" : 1,
		"appversion" : 		{
			"major" : 8,
			"minor" : 1,
			"revision" : 11,
			"architecture" : "x64",
			"modernui" : 1
		}
,
		"classnamespace" : "box",
		"rect" : [ 100.0, 100.0, 815.0, 650.0 ],
		"bglocked" : 0,
		"openinpresentation" : 0,
		"default_fontsize" : 12.0,
		"default_fontface" : 0,
		"default_fontname" : "Arial",
		"gridonopen" : 1,
		"gridsize" : [ 5.0, 5.0 ],
		"gridsnaponopen" : 1,
		"objectsnaponopen" : 1,
		"statusbarvisible" : 2,
		"toolbarvisible" : 1,
		"lefttoolbarpinned" : 0,
		"toptoolbarpinned" : 0,
		"righttoolbarpinned" : 0,
		"bottomtoolbarpinned" : 0,
		"toolbars_unpinned_last_save" : 0,
		"tallnewobj" : 0,
		"boxanimatetime" : 200,
		"enablehscroll" : 1,
		"enablevscroll" : 1,
		"devicewidth" : 0.0,
		"description" : "",
		"digest" : "",
		"tags" : "",
		"style" : "",
		"subpatcher_template" : "",
		"showrootpatcherontab" : 0,
		"showontab" : 0,
		"assistshowspatchername" : 0,
		"boxes" : [ 			{
				"box" : 				{
					"fontname" : "Arial",
					"fontsize" : 12.0,
					"id" : "obj-15",
					"maxclass" : "newobj",
					"numinlets" : 0,
					"numoutlets" : 0,
					"patcher" : 					{
						"fileversion" : 1,
						"appversion" : 						{
							"major" : 8,
							"minor" : 1,
							"revision" : 11,
							"architecture" : "x64",
							"modernui" : 1
						}
,
						"classnamespace" : "box",
						"rect" : [ 0.0, 26.0, 815.0, 624.0 ],
						"bglocked" : 0,
						"openinpresentation" : 0,
						"default_fontsize" : 13.0,
						"default_fontface" : 0,
						"default_fontname" : "Arial",
						"gridonopen" : 1,
						"gridsize" : [ 5.0, 5.0 ],
						"gridsnaponopen" : 1,
						"objectsnaponopen" : 1,
						"statusbarvisible" : 2,
						"toolbarvisible" : 1,
						"lefttoolbarpinned" : 0,
						"toptoolbarpinned" : 0,
						"righttoolbarpinned" : 0,
						"bottomtoolbarpinned" : 0,
						"toolbars_unpinned_last_save" : 0,
						"tallnewobj" : 0,
						"boxanimatetime" : 200,
						"enablehscroll" : 1,
						"enablevscroll" : 1,
						"devicewidth" : 0.0,
						"description" : "",
						"digest" : "",
						"tags" : "",
						"style" : "",
						"subpatcher_template" : "",
						"showontab" : 1,
						"assistshowspatchername" : 0,
						"boxes" : [ 							{
								"box" : 								{
									"bgmode" : 0,
									"border" : 0,
									"clickthrough" : 0,
									"enablehscroll" : 0,
									"enablevscroll" : 0,
									"id" : "obj-7",
									"lockeddragscroll" : 0,
									"maxclass" : "bpatcher",
									"name" : "dada.commons.maxpat",
									"numinlets" : 0,
									"numoutlets" : 0,
									"offset" : [ 0.0, 0.0 ],
									"patching_rect" : [ 2.0, 4.0, 673.0, 516.0 ],
									"viewvisibility" : 1
								}

							}
 ],
						"lines" : [  ]
					}
,
					"patching_rect" : [ 74.0, 232.0, 73.0, 22.0 ],
					"saved_object_attributes" : 					{
						"description" : "",
						"digest" : "",
						"fontsize" : 13.0,
						"globalpatchername" : "",
						"tags" : ""
					}
,
					"text" : "p commons",
					"varname" : "basic_tab[8]"
				}

			}
, 			{
				"box" : 				{
					"fontname" : "Arial",
					"fontsize" : 12.0,
					"id" : "obj-3",
					"maxclass" : "newobj",
					"numinlets" : 0,
					"numoutlets" : 0,
					"patcher" : 					{
						"fileversion" : 1,
						"appversion" : 						{
							"major" : 8,
							"minor" : 1,
							"revision" : 11,
							"architecture" : "x64",
							"modernui" : 1
						}
,
						"classnamespace" : "box",
						"rect" : [ 100.0, 126.0, 815.0, 624.0 ],
						"bglocked" : 0,
						"openinpresentation" : 0,
						"default_fontsize" : 13.0,
						"default_fontface" : 0,
						"default_fontname" : "Arial",
						"gridonopen" : 1,
						"gridsize" : [ 5.0, 5.0 ],
						"gridsnaponopen" : 1,
						"objectsnaponopen" : 1,
						"statusbarvisible" : 2,
						"toolbarvisible" : 1,
						"lefttoolbarpinned" : 0,
						"toptoolbarpinned" : 0,
						"righttoolbarpinned" : 0,
						"bottomtoolbarpinned" : 0,
						"toolbars_unpinned_last_save" : 0,
						"tallnewobj" : 0,
						"boxanimatetime" : 200,
						"enablehscroll" : 1,
						"enablevscroll" : 1,
						"devicewidth" : 0.0,
						"description" : "",
						"digest" : "",
						"tags" : "",
						"style" : "",
						"subpatcher_template" : "",
						"showontab" : 1,
						"assistshowspatchername" : 0,
						"boxes" : [ 							{
								"box" : 								{
									"id" : "obj-3",
									"linecount" : 4,
									"maxclass" : "message",
									"numinlets" : 2,
									"numoutlets" : 1,
									"outlettype" : [ "" ],
									"patching_rect" : [ 77.0, 213.0, 733.0, 67.0 ],
									"presentation_linecount" : 4,
									"text" : "graph [ vertices [ [ coord -17.757448 1.331836 ] [ label 6000 ] ] [ [ coord 4.575425 14.483416 ] [ label 6250 ] ] [ [ coord 13.226624 -5.181782 ] [ label 6500 ] ] [ [ coord -10.169013 23.549703 ] [ label 6700 ] ] [ [ coord 35.336212 -7.046707 ] [ label 7200 ] ] [ [ coord 30.67074 22.934029 ] [ label 6200 ] ] ] [ edges [ 1 2 [ weight 0.1 ] ] [ 1 4 [ weight 0.1 ] ] [ 2 3 [ weight 0.2 ] ] [ 3 5 [ weight 0.7 ] ] [ 4 2 [ weight 0.1 ] ] [ 3 6 [ weight 0. ] ] ]"
								}

							}
, 							{
								"box" : 								{
									"id" : "obj-6",
									"linecount" : 4,
									"maxclass" : "message",
									"numinlets" : 2,
									"numoutlets" : 1,
									"outlettype" : [ "" ],
									"patching_rect" : [ 45.0, 144.0, 762.0, 67.0 ],
									"text" : "graph [ vertices [ [ coord -17.757448 1.331836 ] [ label 6000 ] ] [ [ coord 4.575425 14.483416 ] [ label 6250 ] ] [ [ coord 13.226624 -5.181782 ] [ label 6500 ] ] [ [ coord -10.169013 23.549703 ] [ label 6700 ] ] [ [ coord 35.336212 -7.046707 ] [ label 7200 ] ] [ [ coord 30.67074 22.934029 ] [ label 6200 ] ] ] [ edges [1 1 [weight 0.1]] [ 1 2 [ weight 0.1 ] ] [ 1 4 [ weight 0.1 ] ] [ 2 3 [ weight 0.2 ] ] [ 3 5 [ weight 0.7 ] ] [ 4 2 [ weight 0.1 ] ] [ 3 6 [ weight 0. ] ] ]"
								}

							}
, 							{
								"box" : 								{
									"attr" : "nodeformat",
									"id" : "obj-4",
									"maxclass" : "attrui",
									"numinlets" : 1,
									"numoutlets" : 1,
									"outlettype" : [ "" ],
									"patching_rect" : [ 17.0, 96.0, 198.0, 23.0 ]
								}

							}
, 							{
								"box" : 								{
									"center" : [ -10.59908125000462, -8.200544593948525 ],
									"fontface" : 0,
									"fontname" : "Arial",
									"fontsize" : 12.0,
									"id" : "obj-1",
									"maxclass" : "dada.graph",
									"nodeformat" : 1,
									"numinlets" : 1,
									"numoutlets" : 3,
									"out" : "nn",
									"outlettype" : [ "", "", "bang" ],
									"patching_rect" : [ 45.0, 310.0, 453.0, 297.0 ],
									"tonedivision" : 4,
									"uigraph_data_0000000000" : [ "graph", "[", "vertices", "[", "[", "coord", "_x_x_x_x_bach_float64_x_x_x_x_", 481586093, 3224486376, "_x_x_x_x_bach_float64_x_x_x_x_", 1140468436, 1073041203, "]", "[", "label", 6000, "]", "]", "[", "[", "coord", "_x_x_x_x_bach_float64_x_x_x_x_", 907097093, 1074941244, "_x_x_x_x_bach_float64_x_x_x_x_", 1296873965, 1076688770, "]", "[", "label", 6250, "]", "]", "[", "[", "coord", "_x_x_x_x_bach_float64_x_x_x_x_", 261683767, 1076524040, "_x_x_x_x_bach_float64_x_x_x_x_", 260309378, 3222583845, "]", "[", "label", 6500, "]", "]", "[", "[", "coord", "_x_x_x_x_bach_float64_x_x_x_x_", 3744936604, 3223606920, "_x_x_x_x_bach_float64_x_x_x_x_", 1442284378, 1077382329, "]", "[", "label", 6700, "]", "]", "[", "[", "coord", "_x_x_x_x_bach_float64_x_x_x_x_", 4272702186, 1078045448, "_x_x_x_x_bach_float64_x_x_x_x_", 4122343970, 3223072723, "]", "[", "label", 7200, "]", "]", "[", "[", "coord", "_x_x_x_x_bach_float64_x_x_x_x_", 2648448633, 1077849013, "_x_x_x_x_bach_float64_x_x_x_x_", 2252899325, 1077341980, "]", "[", "label", 6200, "]", "]", "]", "[", "edges", "[", 1, 2, "[", "weight", "_x_x_x_x_bach_float64_x_x_x_x_", 2576980378, 1069128089, "]", "]", "[", 1, 4, "[", "weight", "_x_x_x_x_bach_float64_x_x_x_x_", 2576980378, 1069128089, "]", "]", "[", 2, 3, "[", "weight", "_x_x_x_x_bach_float64_x_x_x_x_", 2576980378, 1070176665, "]", "]", "[", 3, 5, "[", "weight", "_x_x_x_x_bach_float64_x_x_x_x_", 1717986918, 1072064102, "]", "]", "[", 4, 2, "[", "weight", "_x_x_x_x_bach_float64_x_x_x_x_", 2576980378, 1069128089, "]", "]", "[", 3, 6, "[", "weight", "_x_x_x_x_bach_float64_x_x_x_x_", 0, 0, "]", "]", "]" ],
									"uigraph_data_count" : [ 1 ],
									"versionnumber" : 20300,
									"zoom" : 660.867879052782087
								}

							}
, 							{
								"box" : 								{
									"border" : 0,
									"filename" : "helpname.js",
									"id" : "obj-2",
									"ignoreclick" : 1,
									"jsarguments" : [ "dada.bounce" ],
									"maxclass" : "jsui",
									"numinlets" : 1,
									"numoutlets" : 1,
									"outlettype" : [ "" ],
									"parameter_enable" : 0,
									"patching_rect" : [ 10.0, 10.0, 273.27203369140625, 57.599853515625 ]
								}

							}
 ],
						"lines" : [ 							{
								"patchline" : 								{
									"destination" : [ "obj-1", 0 ],
									"source" : [ "obj-3", 0 ]
								}

							}
, 							{
								"patchline" : 								{
									"destination" : [ "obj-1", 0 ],
									"source" : [ "obj-4", 0 ]
								}

							}
, 							{
								"patchline" : 								{
									"destination" : [ "obj-1", 0 ],
									"source" : [ "obj-6", 0 ]
								}

							}
 ]
					}
,
					"patching_rect" : [ 56.0, 193.0, 50.0, 22.0 ],
					"saved_object_attributes" : 					{
						"description" : "",
						"digest" : "",
						"fontsize" : 13.0,
						"globalpatchername" : "",
						"tags" : ""
					}
,
					"text" : "p notes",
					"varname" : "basic_tab[1]"
				}

			}
, 			{
				"box" : 				{
					"fontname" : "Arial",
					"fontsize" : 12.0,
					"id" : "obj-9",
					"maxclass" : "newobj",
					"numinlets" : 0,
					"numoutlets" : 0,
					"patcher" : 					{
						"fileversion" : 1,
						"appversion" : 						{
							"major" : 8,
							"minor" : 1,
							"revision" : 11,
							"architecture" : "x64",
							"modernui" : 1
						}
,
						"classnamespace" : "box",
						"rect" : [ 0.0, 26.0, 815.0, 624.0 ],
						"bglocked" : 0,
						"openinpresentation" : 0,
						"default_fontsize" : 13.0,
						"default_fontface" : 0,
						"default_fontname" : "Arial",
						"gridonopen" : 1,
						"gridsize" : [ 5.0, 5.0 ],
						"gridsnaponopen" : 1,
						"objectsnaponopen" : 1,
						"statusbarvisible" : 2,
						"toolbarvisible" : 1,
						"lefttoolbarpinned" : 0,
						"toptoolbarpinned" : 0,
						"righttoolbarpinned" : 0,
						"bottomtoolbarpinned" : 0,
						"toolbars_unpinned_last_save" : 0,
						"tallnewobj" : 0,
						"boxanimatetime" : 200,
						"enablehscroll" : 1,
						"enablevscroll" : 1,
						"devicewidth" : 0.0,
						"description" : "",
						"digest" : "",
						"tags" : "",
						"style" : "",
						"subpatcher_template" : "",
						"showontab" : 1,
						"assistshowspatchername" : 0,
						"boxes" : [ 							{
								"box" : 								{
									"bubble" : 1,
									"fontname" : "Arial",
									"fontsize" : 13.0,
									"id" : "obj-10",
									"maxclass" : "comment",
									"numinlets" : 1,
									"numoutlets" : 0,
									"patching_rect" : [ 602.5, 399.0, 95.0, 25.0 ],
									"text" : "Clear graph"
								}

							}
, 							{
								"box" : 								{
									"id" : "obj-9",
									"maxclass" : "message",
									"numinlets" : 2,
									"numoutlets" : 1,
									"outlettype" : [ "" ],
									"patching_rect" : [ 557.0, 400.0, 39.0, 23.0 ],
									"text" : "clear"
								}

							}
, 							{
								"box" : 								{
									"attr" : "autozoomwhenupdated",
									"id" : "obj-7",
									"maxclass" : "attrui",
									"numinlets" : 1,
									"numoutlets" : 1,
									"outlettype" : [ "" ],
									"patching_rect" : [ 340.0, 349.0, 222.0, 23.0 ],
									"text_width" : 172.0
								}

							}
, 							{
								"box" : 								{
									"center" : [ -10.980703, -11.936565 ],
									"fontface" : 0,
									"fontname" : "Arial",
									"fontsize" : 13.0,
									"id" : "obj-3",
									"maxclass" : "dada.graph",
									"numinlets" : 1,
									"numoutlets" : 3,
									"out" : "nn",
									"outlettype" : [ "", "", "bang" ],
									"patching_rect" : [ 340.0, 389.0, 199.0, 172.0 ],
									"uigraph_data_0000000000" : [ "graph", "[", "vertices", "]", "[", "edges", "]" ],
									"uigraph_data_count" : [ 1 ],
									"versionnumber" : 20300,
									"zoom" : 237.316932000000008
								}

							}
, 							{
								"box" : 								{
									"id" : "obj-5",
									"maxclass" : "message",
									"numinlets" : 2,
									"numoutlets" : 1,
									"outlettype" : [ "" ],
									"patching_rect" : [ 373.0, 284.0, 106.0, 23.0 ],
									"text" : "setturtle label 12"
								}

							}
, 							{
								"box" : 								{
									"fontname" : "Arial",
									"fontsize" : 13.0,
									"id" : "obj-29",
									"maxclass" : "comment",
									"numinlets" : 1,
									"numoutlets" : 0,
									"patching_rect" : [ 360.0, 127.0, 72.0, 21.0 ],
									"text" : "Save/load:",
									"textcolor" : [ 0.501961, 0.501961, 0.501961, 1.0 ]
								}

							}
, 							{
								"box" : 								{
									"id" : "obj-27",
									"maxclass" : "message",
									"numinlets" : 2,
									"numoutlets" : 1,
									"outlettype" : [ "" ],
									"patching_rect" : [ 363.0, 198.5, 52.0, 23.0 ],
									"text" : "writetxt"
								}

							}
, 							{
								"box" : 								{
									"id" : "obj-26",
									"maxclass" : "message",
									"numinlets" : 2,
									"numoutlets" : 1,
									"outlettype" : [ "" ],
									"patching_rect" : [ 363.0, 146.5, 37.0, 23.0 ],
									"text" : "read"
								}

							}
, 							{
								"box" : 								{
									"id" : "obj-25",
									"maxclass" : "message",
									"numinlets" : 2,
									"numoutlets" : 1,
									"outlettype" : [ "" ],
									"patching_rect" : [ 363.0, 173.5, 38.0, 23.0 ],
									"text" : "write"
								}

							}
, 							{
								"box" : 								{
									"id" : "obj-13",
									"maxclass" : "newobj",
									"numinlets" : 1,
									"numoutlets" : 0,
									"patching_rect" : [ 16.0, 450.5, 190.0, 23.0 ],
									"saved_object_attributes" : 									{
										"versionnumber" : 80001
									}
,
									"text" : "bach.post Dump @maxdepth 1"
								}

							}
, 							{
								"box" : 								{
									"bubble" : 1,
									"fontname" : "Arial",
									"fontsize" : 13.0,
									"id" : "obj-11",
									"maxclass" : "comment",
									"numinlets" : 1,
									"numoutlets" : 0,
									"patching_rect" : [ 68.5, 85.0, 280.0, 25.0 ],
									"text" : "Dump all the information from the first outlet"
								}

							}
, 							{
								"box" : 								{
									"id" : "obj-4",
									"maxclass" : "message",
									"numinlets" : 2,
									"numoutlets" : 1,
									"outlettype" : [ "" ],
									"patching_rect" : [ 16.0, 85.0, 43.0, 23.0 ],
									"text" : "dump"
								}

							}
, 							{
								"box" : 								{
									"center" : [ -10.200669, -9.595311000000001 ],
									"fontface" : 0,
									"fontname" : "Arial",
									"fontsize" : 13.0,
									"id" : "obj-1",
									"maxclass" : "dada.graph",
									"numinlets" : 1,
									"numoutlets" : 3,
									"out" : "nn",
									"outlettype" : [ "", "", "bang" ],
									"patching_rect" : [ 16.0, 137.0, 305.0, 270.0 ],
									"uigraph_data_0000000000" : [ "graph", "[", "vertices", "[", "[", "coord", "_x_x_x_x_bach_float64_x_x_x_x_", 536870912, 3224486376, "_x_x_x_x_bach_float64_x_x_x_x_", 1073741824, 1073041203, "]", "[", "label", 6000, "]", "]", "[", "[", "coord", "_x_x_x_x_bach_float64_x_x_x_x_", 1073741824, 1075114471, "_x_x_x_x_bach_float64_x_x_x_x_", 1610612736, 1076871409, "]", "[", "label", 6200, "]", "]", "[", "[", "coord", "_x_x_x_x_bach_float64_x_x_x_x_", 3221225472, 1076592206, "_x_x_x_x_bach_float64_x_x_x_x_", 3758096384, 3222693986, "]", "[", "label", 6500, "]", "]", "[", "[", "coord", "_x_x_x_x_bach_float64_x_x_x_x_", 3221225472, 3223820961, "_x_x_x_x_bach_float64_x_x_x_x_", 2147483648, 1077666325, "]", "[", "label", 6700, "]", "]", "[", "[", "coord", "_x_x_x_x_bach_float64_x_x_x_x_", 3758096384, 1077260929, "_x_x_x_x_bach_float64_x_x_x_x_", 1073741824, 1077227243, "]", "[", "label", 12, "]", "]", "[", "[", "coord", "_x_x_x_x_bach_float64_x_x_x_x_", 0, 1078045449, "_x_x_x_x_bach_float64_x_x_x_x_", 0, 3223072724, "]", "[", "label", 7200, "]", "]", "]", "[", "edges", "[", 1, 2, "[", "weight", "_x_x_x_x_bach_float64_x_x_x_x_", 2684354560, 1069128089, "]", "]", "[", 1, 4, "[", "weight", "_x_x_x_x_bach_float64_x_x_x_x_", 2684354560, 1069128089, "]", "]", "[", 2, 3, "[", "weight", "_x_x_x_x_bach_float64_x_x_x_x_", 2684354560, 1070176665, "]", "]", "[", 3, 5, "[", "weight", "_x_x_x_x_bach_float64_x_x_x_x_", 2684354560, 1071225241, "]", "]", "[", 3, 6, "[", "weight", "_x_x_x_x_bach_float64_x_x_x_x_", 1610612736, 1072064102, "]", "]", "[", 4, 2, "[", "weight", "_x_x_x_x_bach_float64_x_x_x_x_", 2684354560, 1069128089, "]", "]", "]" ],
									"uigraph_data_count" : [ 1 ],
									"versionnumber" : 20300,
									"zoom" : 493.510315999999989
								}

							}
, 							{
								"box" : 								{
									"border" : 0,
									"filename" : "helpname.js",
									"id" : "obj-2",
									"ignoreclick" : 1,
									"jsarguments" : [ "dada.bounce" ],
									"maxclass" : "jsui",
									"numinlets" : 1,
									"numoutlets" : 1,
									"outlettype" : [ "" ],
									"parameter_enable" : 0,
									"patching_rect" : [ 10.0, 10.0, 273.27203369140625, 57.599853515625 ]
								}

							}
 ],
						"lines" : [ 							{
								"patchline" : 								{
									"destination" : [ "obj-13", 0 ],
									"order" : 1,
									"source" : [ "obj-1", 0 ]
								}

							}
, 							{
								"patchline" : 								{
									"destination" : [ "obj-3", 0 ],
									"order" : 0,
									"source" : [ "obj-1", 0 ]
								}

							}
, 							{
								"patchline" : 								{
									"destination" : [ "obj-1", 0 ],
									"source" : [ "obj-25", 0 ]
								}

							}
, 							{
								"patchline" : 								{
									"destination" : [ "obj-1", 0 ],
									"source" : [ "obj-26", 0 ]
								}

							}
, 							{
								"patchline" : 								{
									"destination" : [ "obj-1", 0 ],
									"source" : [ "obj-27", 0 ]
								}

							}
, 							{
								"patchline" : 								{
									"destination" : [ "obj-1", 0 ],
									"source" : [ "obj-4", 0 ]
								}

							}
, 							{
								"patchline" : 								{
									"destination" : [ "obj-1", 0 ],
									"source" : [ "obj-5", 0 ]
								}

							}
, 							{
								"patchline" : 								{
									"destination" : [ "obj-3", 0 ],
									"source" : [ "obj-7", 0 ]
								}

							}
, 							{
								"patchline" : 								{
									"destination" : [ "obj-3", 0 ],
									"source" : [ "obj-9", 0 ]
								}

							}
 ]
					}
,
					"patching_rect" : [ 32.0, 151.0, 115.0, 22.0 ],
					"saved_object_attributes" : 					{
						"description" : "",
						"digest" : "",
						"fontsize" : 13.0,
						"globalpatchername" : "",
						"tags" : ""
					}
,
					"text" : "p \"basic messages\"",
					"varname" : "basic_tab[5]"
				}

			}
, 			{
				"box" : 				{
					"fontname" : "Arial",
					"fontsize" : 12.0,
					"id" : "obj-6",
					"maxclass" : "newobj",
					"numinlets" : 0,
					"numoutlets" : 0,
					"patcher" : 					{
						"fileversion" : 1,
						"appversion" : 						{
							"major" : 8,
							"minor" : 1,
							"revision" : 11,
							"architecture" : "x64",
							"modernui" : 1
						}
,
						"classnamespace" : "box",
						"rect" : [ 0.0, 26.0, 815.0, 624.0 ],
						"bglocked" : 0,
						"openinpresentation" : 0,
						"default_fontsize" : 13.0,
						"default_fontface" : 0,
						"default_fontname" : "Arial",
						"gridonopen" : 1,
						"gridsize" : [ 5.0, 5.0 ],
						"gridsnaponopen" : 1,
						"objectsnaponopen" : 1,
						"statusbarvisible" : 2,
						"toolbarvisible" : 1,
						"lefttoolbarpinned" : 0,
						"toptoolbarpinned" : 0,
						"righttoolbarpinned" : 0,
						"bottomtoolbarpinned" : 0,
						"toolbars_unpinned_last_save" : 0,
						"tallnewobj" : 0,
						"boxanimatetime" : 200,
						"enablehscroll" : 1,
						"enablevscroll" : 1,
						"devicewidth" : 0.0,
						"description" : "",
						"digest" : "",
						"tags" : "",
						"style" : "",
						"subpatcher_template" : "",
						"showontab" : 1,
						"assistshowspatchername" : 0,
						"boxes" : [ 							{
								"box" : 								{
									"id" : "obj-10",
									"maxclass" : "message",
									"numinlets" : 2,
									"numoutlets" : 1,
									"outlettype" : [ "" ],
									"patching_rect" : [ 337.0, 163.0, 68.0, 23.0 ],
									"text" : "autozoom"
								}

							}
, 							{
								"box" : 								{
									"attr" : "showweights",
									"id" : "obj-7",
									"maxclass" : "attrui",
									"numinlets" : 1,
									"numoutlets" : 1,
									"outlettype" : [ "" ],
									"patching_rect" : [ 119.0, 163.0, 150.0, 23.0 ]
								}

							}
, 							{
								"box" : 								{
									"bubble" : 1,
									"id" : "obj-16",
									"linecount" : 2,
									"maxclass" : "comment",
									"numinlets" : 1,
									"numoutlets" : 0,
									"patching_rect" : [ 242.0, 92.567627000000002, 113.0, 40.0 ],
									"text" : "Set or get domain/range"
								}

							}
, 							{
								"box" : 								{
									"id" : "obj-14",
									"maxclass" : "message",
									"numinlets" : 2,
									"numoutlets" : 1,
									"outlettype" : [ "" ],
									"patching_rect" : [ 135.0, 85.567627000000002, 99.0, 23.0 ],
									"text" : "range -200 200"
								}

							}
, 							{
								"box" : 								{
									"id" : "obj-15",
									"maxclass" : "message",
									"numinlets" : 2,
									"numoutlets" : 1,
									"outlettype" : [ "" ],
									"patching_rect" : [ 18.0, 85.567627000000002, 108.0, 23.0 ],
									"text" : "domain -18 18"
								}

							}
, 							{
								"box" : 								{
									"id" : "obj-12",
									"maxclass" : "newobj",
									"numinlets" : 1,
									"numoutlets" : 0,
									"patching_rect" : [ 150.5, 516.0, 94.0, 23.0 ],
									"saved_object_attributes" : 									{
										"versionnumber" : 80001
									}
,
									"text" : "bach.print Res"
								}

							}
, 							{
								"box" : 								{
									"id" : "obj-11",
									"maxclass" : "message",
									"numinlets" : 2,
									"numoutlets" : 1,
									"outlettype" : [ "" ],
									"patching_rect" : [ 104.0, 113.567627000000002, 62.0, 23.0 ],
									"text" : "getrange"
								}

							}
, 							{
								"box" : 								{
									"id" : "obj-9",
									"maxclass" : "message",
									"numinlets" : 2,
									"numoutlets" : 1,
									"outlettype" : [ "" ],
									"patching_rect" : [ 18.0, 113.567627000000002, 71.0, 23.0 ],
									"text" : "getdomain"
								}

							}
, 							{
								"box" : 								{
									"bubble" : 1,
									"id" : "obj-8",
									"maxclass" : "comment",
									"numinlets" : 1,
									"numoutlets" : 0,
									"patching_rect" : [ 312.0, 542.0, 319.0, 25.0 ],
									"text" : "bang whenever the object is changed via interface"
								}

							}
, 							{
								"box" : 								{
									"id" : "obj-6",
									"maxclass" : "button",
									"numinlets" : 1,
									"numoutlets" : 1,
									"outlettype" : [ "bang" ],
									"parameter_enable" : 0,
									"patching_rect" : [ 283.0, 542.0, 24.0, 24.0 ]
								}

							}
, 							{
								"box" : 								{
									"id" : "obj-5",
									"linecount" : 8,
									"maxclass" : "comment",
									"numinlets" : 1,
									"numoutlets" : 0,
									"patching_rect" : [ 318.0, 199.567626999999987, 398.0, 123.0 ],
									"text" : "Click+drag to move elements; add Alt key to duplicate vertices.\n\nAlt+click+drag on an edge to modify its weight \n\nUse Cmd+click (mac) or Ctrl+click (win) to delete elements (edges, vertices).\n\nUse right click contextual menu to perform additional actions",
									"textcolor" : [ 0.501961, 0.0, 0.0, 1.0 ]
								}

							}
, 							{
								"box" : 								{
									"id" : "obj-4",
									"linecount" : 13,
									"maxclass" : "comment",
									"numinlets" : 1,
									"numoutlets" : 0,
									"patching_rect" : [ 318.0, 324.567627000000016, 341.0, 195.0 ],
									"text" : "Key-mapped tools (hold down key while them mouse is on the appropriate element, and the pointer will changed to desired tool):\n\nL: add edge by gluing vertices together\n\nScroll the mouse to move the region\nCmd+Scroll (mac) or Ctrl+Scroll (win) to change zoom\nEsc to re-center\nTab to autozoom\n\nCmd+Z (mac) or Ctrl+Z (win) to undo\nCmd+Shift+Z (mac) or Ctrl+Y (win) to redo",
									"textcolor" : [ 0.501961, 0.0, 0.0, 1.0 ]
								}

							}
, 							{
								"box" : 								{
									"center" : [ -14.66278, -9.681794999999999 ],
									"fontface" : 0,
									"fontname" : "Arial",
									"fontsize" : 13.0,
									"id" : "obj-1",
									"maxclass" : "dada.graph",
									"numinlets" : 1,
									"numoutlets" : 3,
									"out" : "nn",
									"outlettype" : [ "", "", "bang" ],
									"patching_rect" : [ 18.0, 212.0, 284.0, 273.0 ],
									"showweights" : 1,
									"uigraph_data_0000000000" : [ "graph", "[", "vertices", "[", "[", "coord", "_x_x_x_x_bach_float64_x_x_x_x_", 3221225472, 3224541981, "_x_x_x_x_bach_float64_x_x_x_x_", 1610612736, 1075866529, "]", "[", "label", 1, "]", "]", "[", "[", "coord", "_x_x_x_x_bach_float64_x_x_x_x_", 0, 1067794287, "_x_x_x_x_bach_float64_x_x_x_x_", 0, 3222976270, "]", "[", "label", 2, "]", "]", "[", "[", "coord", "_x_x_x_x_bach_float64_x_x_x_x_", 1610612736, 3224432813, "_x_x_x_x_bach_float64_x_x_x_x_", 1610612736, 1077522988, "]", "[", "label", 3, "]", "]", "[", "[", "coord", "_x_x_x_x_bach_float64_x_x_x_x_", 1610612736, 1077139698, "_x_x_x_x_bach_float64_x_x_x_x_", 3758096384, 3224633372, "]", "[", "label", 4, "]", "]", "[", "[", "coord", "_x_x_x_x_bach_float64_x_x_x_x_", 3758096384, 3222110042, "_x_x_x_x_bach_float64_x_x_x_x_", 3221225472, 1077349044, "]", "[", "label", 5, "]", "]", "[", "[", "coord", "_x_x_x_x_bach_float64_x_x_x_x_", 2684354560, 1074218512, "_x_x_x_x_bach_float64_x_x_x_x_", 1073741824, 1076132726, "]", "[", "label", 6, "]", "]", "[", "[", "coord", "_x_x_x_x_bach_float64_x_x_x_x_", 536870912, 1076797516, "_x_x_x_x_bach_float64_x_x_x_x_", 0, 1075852239, "]", "[", "label", 10, "]", "]", "[", "[", "coord", "_x_x_x_x_bach_float64_x_x_x_x_", 1610612736, 1077336979, "_x_x_x_x_bach_float64_x_x_x_x_", 1610612736, 3222270070, "]", "[", "label", 12, "]", "]", "[", "[", "coord", "_x_x_x_x_bach_float64_x_x_x_x_", 1610612736, 3219846422, "_x_x_x_x_bach_float64_x_x_x_x_", 0, 1078165271, "]", "[", "label", 15, "]", "]", "[", "[", "coord", "_x_x_x_x_bach_float64_x_x_x_x_", 2684354560, 1078055138, "_x_x_x_x_bach_float64_x_x_x_x_", 2684354560, 3222840175, "]", "[", "label", 20, "]", "]", "[", "[", "coord", "_x_x_x_x_bach_float64_x_x_x_x_", 3758096384, 1077028598, "_x_x_x_x_bach_float64_x_x_x_x_", 1610612736, 1077483843, "]", "[", "label", 30, "]", "]", "[", "[", "coord", "_x_x_x_x_bach_float64_x_x_x_x_", 3758096384, 1078078895, "_x_x_x_x_bach_float64_x_x_x_x_", 2147483648, 1076234870, "]", "[", "label", 60, "]", "]", "[", "[", "coord", "_x_x_x_x_bach_float64_x_x_x_x_", 2147483648, 1078236085, "_x_x_x_x_bach_float64_x_x_x_x_", 2147483648, 1078184055, "]", "[", "label", 30, "]", "]", "]", "[", "edges", "[", 1, 2, "[", "weight", "_x_x_x_x_bach_float64_x_x_x_x_", 0, 0, "]", "]", "[", 1, 3, "[", "weight", "_x_x_x_x_bach_float64_x_x_x_x_", 0, 0, "]", "]", "[", 1, 5, "[", "weight", "_x_x_x_x_bach_float64_x_x_x_x_", 0, 0, "]", "]", "[", 2, 4, "[", "weight", "_x_x_x_x_bach_float64_x_x_x_x_", 0, 0, "]", "]", "[", 2, 6, "[", "weight", "_x_x_x_x_bach_float64_x_x_x_x_", 0, 0, "]", "]", "[", 2, 7, "[", "weight", "_x_x_x_x_bach_float64_x_x_x_x_", 0, 0, "]", "]", "[", 3, 6, "[", "weight", "_x_x_x_x_bach_float64_x_x_x_x_", 0, 0, "]", "]", "[", 3, 9, "[", "weight", "_x_x_x_x_bach_float64_x_x_x_x_", 0, 0, "]", "]", "[", 4, 8, "[", "weight", "_x_x_x_x_bach_float64_x_x_x_x_", 0, 0, "]", "]", "[", 4, 10, "[", "weight", "_x_x_x_x_bach_float64_x_x_x_x_", 0, 0, "]", "]", "[", 5, 7, "[", "weight", "_x_x_x_x_bach_float64_x_x_x_x_", 0, 0, "]", "]", "[", 5, 9, "[", "weight", "_x_x_x_x_bach_float64_x_x_x_x_", 0, 0, "]", "]", "[", 6, 8, "[", "weight", "_x_x_x_x_bach_float64_x_x_x_x_", 0, 0, "]", "]", "[", 6, 11, "[", "weight", "_x_x_x_x_bach_float64_x_x_x_x_", 0, 0, "]", "]", "[", 7, 10, "[", "weight", "_x_x_x_x_bach_float64_x_x_x_x_", 0, 0, "]", "]", "[", 7, 11, "[", "weight", "_x_x_x_x_bach_float64_x_x_x_x_", 0, 0, "]", "]", "[", 8, 12, "[", "weight", "_x_x_x_x_bach_float64_x_x_x_x_", 0, 0, "]", "]", "[", 9, 11, "[", "weight", "_x_x_x_x_bach_float64_x_x_x_x_", 2576980377, 1071749529, "]", "]", "[", 10, 12, "[", "weight", "_x_x_x_x_bach_float64_x_x_x_x_", 2684354560, 1068079513, "]", "]", "[", 11, 12, "[", "weight", "_x_x_x_x_bach_float64_x_x_x_x_", 0, 0, "]", "]", "[", 11, 13, "[", "weight", "_x_x_x_x_bach_float64_x_x_x_x_", 0, 0, "]", "]", "]" ],
									"uigraph_data_count" : [ 1 ],
									"versionnumber" : 20300,
									"zoom" : 306.283524
								}

							}
, 							{
								"box" : 								{
									"border" : 0,
									"filename" : "helpname.js",
									"id" : "obj-2",
									"ignoreclick" : 1,
									"jsarguments" : [ "dada.bounce" ],
									"maxclass" : "jsui",
									"numinlets" : 1,
									"numoutlets" : 1,
									"outlettype" : [ "" ],
									"parameter_enable" : 0,
									"patching_rect" : [ 10.0, 10.0, 273.27203369140625, 57.599853515625 ]
								}

							}
 ],
						"lines" : [ 							{
								"patchline" : 								{
									"destination" : [ "obj-12", 0 ],
									"source" : [ "obj-1", 1 ]
								}

							}
, 							{
								"patchline" : 								{
									"destination" : [ "obj-6", 0 ],
									"source" : [ "obj-1", 2 ]
								}

							}
, 							{
								"patchline" : 								{
									"destination" : [ "obj-1", 0 ],
									"source" : [ "obj-10", 0 ]
								}

							}
, 							{
								"patchline" : 								{
									"destination" : [ "obj-1", 0 ],
									"source" : [ "obj-11", 0 ]
								}

							}
, 							{
								"patchline" : 								{
									"destination" : [ "obj-1", 0 ],
									"source" : [ "obj-14", 0 ]
								}

							}
, 							{
								"patchline" : 								{
									"destination" : [ "obj-1", 0 ],
									"source" : [ "obj-15", 0 ]
								}

							}
, 							{
								"patchline" : 								{
									"destination" : [ "obj-1", 0 ],
									"source" : [ "obj-7", 0 ]
								}

							}
, 							{
								"patchline" : 								{
									"destination" : [ "obj-1", 0 ],
									"source" : [ "obj-9", 0 ]
								}

							}
 ]
					}
,
					"patching_rect" : [ 22.0, 119.0, 67.0, 22.0 ],
					"saved_object_attributes" : 					{
						"description" : "",
						"digest" : "",
						"fontsize" : 13.0,
						"globalpatchername" : "",
						"tags" : ""
					}
,
					"text" : "p interface",
					"varname" : "basic_tab[3]"
				}

			}
, 			{
				"box" : 				{
					"fontname" : "Arial",
					"fontsize" : 12.0,
					"id" : "obj-1",
					"maxclass" : "newobj",
					"numinlets" : 1,
					"numoutlets" : 1,
					"outlettype" : [ "" ],
					"patching_rect" : [ 300.0, 205.0, 155.0, 22.0 ],
					"saved_object_attributes" : 					{
						"filename" : "helpstarter.js",
						"parameter_enable" : 0
					}
,
					"text" : "js helpstarter.js dada.graph"
				}

			}
, 			{
				"box" : 				{
					"fontname" : "Arial",
					"fontsize" : 12.0,
					"id" : "obj-2",
					"maxclass" : "newobj",
					"numinlets" : 0,
					"numoutlets" : 0,
					"patcher" : 					{
						"fileversion" : 1,
						"appversion" : 						{
							"major" : 8,
							"minor" : 1,
							"revision" : 11,
							"architecture" : "x64",
							"modernui" : 1
						}
,
						"classnamespace" : "box",
						"rect" : [ 0.0, 26.0, 815.0, 624.0 ],
						"bglocked" : 0,
						"openinpresentation" : 0,
						"default_fontsize" : 13.0,
						"default_fontface" : 0,
						"default_fontname" : "Arial",
						"gridonopen" : 1,
						"gridsize" : [ 5.0, 5.0 ],
						"gridsnaponopen" : 1,
						"objectsnaponopen" : 1,
						"statusbarvisible" : 2,
						"toolbarvisible" : 1,
						"lefttoolbarpinned" : 0,
						"toptoolbarpinned" : 0,
						"righttoolbarpinned" : 0,
						"bottomtoolbarpinned" : 0,
						"toolbars_unpinned_last_save" : 0,
						"tallnewobj" : 0,
						"boxanimatetime" : 200,
						"enablehscroll" : 1,
						"enablevscroll" : 1,
						"devicewidth" : 0.0,
						"description" : "",
						"digest" : "",
						"tags" : "",
						"style" : "",
						"subpatcher_template" : "",
						"showontab" : 1,
						"assistshowspatchername" : 0,
						"boxes" : [ 							{
								"box" : 								{
									"attr" : "edgewidth",
									"id" : "obj-18",
									"maxclass" : "attrui",
									"numinlets" : 1,
									"numoutlets" : 1,
									"outlettype" : [ "" ],
									"patching_rect" : [ 346.5, 478.0, 150.0, 23.0 ]
								}

							}
, 							{
								"box" : 								{
									"id" : "obj-16",
									"maxclass" : "message",
									"numinlets" : 2,
									"numoutlets" : 1,
									"outlettype" : [ "" ],
									"patching_rect" : [ 164.0, 197.0, 66.0, 23.0 ],
									"text" : "autocoord"
								}

							}
, 							{
								"box" : 								{
									"id" : "obj-13",
									"maxclass" : "button",
									"numinlets" : 1,
									"numoutlets" : 1,
									"outlettype" : [ "bang" ],
									"parameter_enable" : 0,
									"patching_rect" : [ 68.0, 212.0, 24.0, 24.0 ]
								}

							}
, 							{
								"box" : 								{
									"attr" : "nodeshape",
									"id" : "obj-8",
									"maxclass" : "attrui",
									"numinlets" : 1,
									"numoutlets" : 1,
									"outlettype" : [ "" ],
									"patching_rect" : [ 346.5, 385.0, 233.0, 23.0 ]
								}

							}
, 							{
								"box" : 								{
									"bubble" : 1,
									"id" : "obj-7",
									"linecount" : 5,
									"maxclass" : "comment",
									"numinlets" : 1,
									"numoutlets" : 0,
									"patching_rect" : [ 648.0, 399.0, 125.0, 83.0 ],
									"text" : "Is dada.graph supposed to assign coordinates automatically?"
								}

							}
, 							{
								"box" : 								{
									"bubble" : 1,
									"id" : "obj-6",
									"linecount" : 3,
									"maxclass" : "comment",
									"numinlets" : 1,
									"numoutlets" : 0,
									"patching_rect" : [ 636.0, 127.5, 154.0, 54.0 ],
									"text" : "Or set a graph containing coordinate information"
								}

							}
, 							{
								"box" : 								{
									"fontsize" : 9.950616999999999,
									"id" : "obj-11",
									"linecount" : 7,
									"maxclass" : "message",
									"numinlets" : 2,
									"numoutlets" : 1,
									"outlettype" : [ "" ],
									"patching_rect" : [ 336.0, 122.317252999999994, 288.0, 86.0 ],
									"text" : "graph [ vertices [ [ coord -17.757448 1.331836 ] [ label 6000 ] ] [ [ coord 4.575425 14.483416 ] [ label 6200 ] ] [ [ coord 13.508574 -8.593886 ] [ label 6500 ] ] [ [ coord -11.802015 27.88314 ] [ label 6700 ] ] [ [ coord 21.697294 21.183278 ] [ label 12 ] ] [ [ coord 35.336214 -7.046707 ] [ label 7200] ] ] [ edges [ 1 2 [ weight 0.1 ] ] [ 1 4 [ weight 0.1 ] ] [ 2 3 [ weight 0.2 ] ] [ 3 5 [ weight 0.4 ] ] [ 3 6 [ weight 0.7 ] ] [ 4 2 [ weight 0.1 ] ] ]"
								}

							}
, 							{
								"box" : 								{
									"bubble" : 1,
									"id" : "obj-4",
									"linecount" : 2,
									"maxclass" : "comment",
									"numinlets" : 1,
									"numoutlets" : 0,
									"patching_rect" : [ 97.0, 127.5, 154.0, 40.0 ],
									"text" : "Build a graph, and autoposition the notes"
								}

							}
, 							{
								"box" : 								{
									"attr" : "showarrows",
									"id" : "obj-33",
									"maxclass" : "attrui",
									"numinlets" : 1,
									"numoutlets" : 1,
									"outlettype" : [ "" ],
									"patching_rect" : [ 346.5, 354.0, 150.0, 23.0 ]
								}

							}
, 							{
								"box" : 								{
									"hidden" : 1,
									"id" : "obj-31",
									"maxclass" : "newobj",
									"numinlets" : 1,
									"numoutlets" : 1,
									"outlettype" : [ "" ],
									"patching_rect" : [ 284.0, 145.0, 84.0, 23.0 ],
									"text" : "loadmess 60"
								}

							}
, 							{
								"box" : 								{
									"id" : "obj-26",
									"maxclass" : "newobj",
									"numinlets" : 1,
									"numoutlets" : 1,
									"outlettype" : [ "" ],
									"patcher" : 									{
										"fileversion" : 1,
										"appversion" : 										{
											"major" : 8,
											"minor" : 1,
											"revision" : 11,
											"architecture" : "x64",
											"modernui" : 1
										}
,
										"classnamespace" : "box",
										"rect" : [ 59.0, 104.0, 640.0, 480.0 ],
										"bglocked" : 0,
										"openinpresentation" : 0,
										"default_fontsize" : 12.0,
										"default_fontface" : 0,
										"default_fontname" : "Arial",
										"gridonopen" : 1,
										"gridsize" : [ 15.0, 15.0 ],
										"gridsnaponopen" : 1,
										"objectsnaponopen" : 1,
										"statusbarvisible" : 2,
										"toolbarvisible" : 1,
										"lefttoolbarpinned" : 0,
										"toptoolbarpinned" : 0,
										"righttoolbarpinned" : 0,
										"bottomtoolbarpinned" : 0,
										"toolbars_unpinned_last_save" : 0,
										"tallnewobj" : 0,
										"boxanimatetime" : 200,
										"enablehscroll" : 1,
										"enablevscroll" : 1,
										"devicewidth" : 0.0,
										"description" : "",
										"digest" : "",
										"tags" : "",
										"style" : "",
										"subpatcher_template" : "",
										"assistshowspatchername" : 0,
										"boxes" : [ 											{
												"box" : 												{
													"fontname" : "Arial",
													"fontsize" : 13.0,
													"id" : "obj-1",
													"maxclass" : "newobj",
													"numinlets" : 2,
													"numoutlets" : 1,
													"outlettype" : [ "" ],
													"patching_rect" : [ 50.0, 342.0, 129.0, 23.0 ],
													"text" : "bach.prepend graph"
												}

											}
, 											{
												"box" : 												{
													"fontname" : "Arial",
													"fontsize" : 13.0,
													"id" : "obj-8",
													"maxclass" : "newobj",
													"numinlets" : 2,
													"numoutlets" : 1,
													"outlettype" : [ "" ],
													"patching_rect" : [ 402.800049000000001, 225.0, 155.0, 23.0 ],
													"saved_object_attributes" : 													{
														"versionnumber" : 80001
													}
,
													"text" : "bach.expr $i2 % $i1 == 0"
												}

											}
, 											{
												"box" : 												{
													"fontsize" : 13.0,
													"id" : "obj-18",
													"maxclass" : "newobj",
													"numinlets" : 2,
													"numoutlets" : 1,
													"outlettype" : [ "" ],
													"patching_rect" : [ 274.0, 252.0, 82.0, 23.0 ],
													"text" : "bach.locate"
												}

											}
, 											{
												"box" : 												{
													"fontname" : "Arial",
													"fontsize" : 13.0,
													"id" : "obj-17",
													"maxclass" : "newobj",
													"numinlets" : 2,
													"numoutlets" : 2,
													"outlettype" : [ "", "" ],
													"patching_rect" : [ 166.0, 252.0, 103.0, 23.0 ],
													"saved_object_attributes" : 													{
														"versionnumber" : 80001
													}
,
													"text" : "bach.mapelem"
												}

											}
, 											{
												"box" : 												{
													"fontname" : "Arial",
													"fontsize" : 13.0,
													"id" : "obj-16",
													"maxclass" : "newobj",
													"numinlets" : 2,
													"numoutlets" : 1,
													"outlettype" : [ "" ],
													"patching_rect" : [ 50.0, 303.0, 168.0, 23.0 ],
													"saved_object_attributes" : 													{
														"versionnumber" : 80001
													}
,
													"text" : "bach.pack vertices edges"
												}

											}
, 											{
												"box" : 												{
													"fontname" : "Arial",
													"fontsize" : 13.0,
													"id" : "obj-10",
													"maxclass" : "newobj",
													"numinlets" : 1,
													"numoutlets" : 1,
													"outlettype" : [ "" ],
													"patching_rect" : [ 166.0, 100.0, 91.0, 23.0 ],
													"text" : "bach.divisors"
												}

											}
, 											{
												"box" : 												{
													"fontname" : "Arial",
													"fontsize" : 13.0,
													"id" : "obj-20",
													"maxclass" : "newobj",
													"numinlets" : 2,
													"numoutlets" : 6,
													"outlettype" : [ "", "", "", "", "", "" ],
													"patching_rect" : [ 166.0, 186.0, 339.0, 23.0 ],
													"saved_object_attributes" : 													{
														"versionnumber" : 80001
													}
,
													"text" : "bach.poset"
												}

											}
, 											{
												"box" : 												{
													"comment" : "",
													"id" : "obj-22",
													"index" : 1,
													"maxclass" : "inlet",
													"numinlets" : 0,
													"numoutlets" : 1,
													"outlettype" : [ "" ],
													"patching_rect" : [ 166.0, 40.0, 30.0, 30.0 ]
												}

											}
, 											{
												"box" : 												{
													"comment" : "",
													"id" : "obj-25",
													"index" : 1,
													"maxclass" : "outlet",
													"numinlets" : 1,
													"numoutlets" : 0,
													"patching_rect" : [ 50.0, 386.0, 30.0, 30.0 ]
												}

											}
 ],
										"lines" : [ 											{
												"patchline" : 												{
													"destination" : [ "obj-25", 0 ],
													"source" : [ "obj-1", 0 ]
												}

											}
, 											{
												"patchline" : 												{
													"destination" : [ "obj-16", 0 ],
													"order" : 2,
													"source" : [ "obj-10", 0 ]
												}

											}
, 											{
												"patchline" : 												{
													"destination" : [ "obj-18", 1 ],
													"order" : 0,
													"source" : [ "obj-10", 0 ]
												}

											}
, 											{
												"patchline" : 												{
													"destination" : [ "obj-20", 0 ],
													"order" : 1,
													"source" : [ "obj-10", 0 ]
												}

											}
, 											{
												"patchline" : 												{
													"destination" : [ "obj-1", 0 ],
													"source" : [ "obj-16", 0 ]
												}

											}
, 											{
												"patchline" : 												{
													"destination" : [ "obj-16", 1 ],
													"source" : [ "obj-17", 0 ]
												}

											}
, 											{
												"patchline" : 												{
													"destination" : [ "obj-18", 0 ],
													"source" : [ "obj-17", 1 ]
												}

											}
, 											{
												"patchline" : 												{
													"destination" : [ "obj-17", 1 ],
													"source" : [ "obj-18", 0 ]
												}

											}
, 											{
												"patchline" : 												{
													"destination" : [ "obj-17", 0 ],
													"source" : [ "obj-20", 0 ]
												}

											}
, 											{
												"patchline" : 												{
													"destination" : [ "obj-8", 1 ],
													"source" : [ "obj-20", 5 ]
												}

											}
, 											{
												"patchline" : 												{
													"destination" : [ "obj-8", 0 ],
													"source" : [ "obj-20", 4 ]
												}

											}
, 											{
												"patchline" : 												{
													"destination" : [ "obj-10", 0 ],
													"source" : [ "obj-22", 0 ]
												}

											}
, 											{
												"patchline" : 												{
													"destination" : [ "obj-20", 1 ],
													"source" : [ "obj-8", 0 ]
												}

											}
 ]
									}
,
									"patching_rect" : [ 28.0, 184.0, 141.0, 23.0 ],
									"saved_object_attributes" : 									{
										"description" : "",
										"digest" : "",
										"globalpatchername" : "",
										"tags" : ""
									}
,
									"text" : "p build_divisors_graph"
								}

							}
, 							{
								"box" : 								{
									"id" : "obj-23",
									"maxclass" : "number",
									"numinlets" : 1,
									"numoutlets" : 2,
									"outlettype" : [ "", "bang" ],
									"parameter_enable" : 0,
									"patching_rect" : [ 28.0, 136.0, 50.0, 23.0 ]
								}

							}
, 							{
								"box" : 								{
									"bubble" : 1,
									"id" : "obj-14",
									"linecount" : 2,
									"maxclass" : "comment",
									"numinlets" : 1,
									"numoutlets" : 0,
									"patching_rect" : [ 584.5, 253.5, 154.0, 40.0 ],
									"text" : "Notify mouse clicking and mouse hovering"
								}

							}
, 							{
								"box" : 								{
									"attr" : "autocoordwhenupdated",
									"id" : "obj-12",
									"maxclass" : "attrui",
									"numinlets" : 1,
									"numoutlets" : 1,
									"outlettype" : [ "" ],
									"patching_rect" : [ 346.5, 429.0, 294.0, 23.0 ],
									"text_width" : 164.0
								}

							}
, 							{
								"box" : 								{
									"attr" : "showweights",
									"id" : "obj-9",
									"maxclass" : "attrui",
									"numinlets" : 1,
									"numoutlets" : 1,
									"outlettype" : [ "" ],
									"patching_rect" : [ 346.5, 323.0, 150.0, 23.0 ]
								}

							}
, 							{
								"box" : 								{
									"attr" : "notify",
									"id" : "obj-5",
									"maxclass" : "attrui",
									"numinlets" : 1,
									"numoutlets" : 1,
									"outlettype" : [ "" ],
									"patching_rect" : [ 346.5, 262.0, 228.0, 23.0 ]
								}

							}
, 							{
								"box" : 								{
									"id" : "obj-3",
									"maxclass" : "newobj",
									"numinlets" : 1,
									"numoutlets" : 0,
									"patching_rect" : [ 171.0, 535.0, 68.0, 23.0 ],
									"saved_object_attributes" : 									{
										"versionnumber" : 80001
									}
,
									"text" : "bach.print"
								}

							}
, 							{
								"box" : 								{
									"center" : [ -10.066654487402012, -9.27037718692273 ],
									"edgewidth" : 2.0,
									"fontface" : 0,
									"fontname" : "Arial",
									"fontsize" : 13.0,
									"id" : "obj-1",
									"maxclass" : "dada.graph",
									"numinlets" : 1,
									"numoutlets" : 3,
									"out" : "nn",
									"outlettype" : [ "", "", "bang" ],
									"patching_rect" : [ 28.0, 244.0, 305.0, 270.0 ],
									"showweights" : 1,
									"uigraph_data_0000000000" : [ "graph", "[", "vertices", "[", "[", "coord", "_x_x_x_x_bach_float64_x_x_x_x_", 3434086368, 3224541981, "_x_x_x_x_bach_float64_x_x_x_x_", 1821121717, 1075866529, "]", "[", "label", 1, "]", "]", "[", "[", "coord", "_x_x_x_x_bach_float64_x_x_x_x_", 121214001, 1067794287, "_x_x_x_x_bach_float64_x_x_x_x_", 8407124, 3222976270, "]", "[", "label", 2, "]", "]", "[", "[", "coord", "_x_x_x_x_bach_float64_x_x_x_x_", 1722246889, 3224432813, "_x_x_x_x_bach_float64_x_x_x_x_", 1600676368, 1077522988, "]", "[", "label", 3, "]", "]", "[", "[", "coord", "_x_x_x_x_bach_float64_x_x_x_x_", 1729282842, 1077139698, "_x_x_x_x_bach_float64_x_x_x_x_", 3742540650, 3224633372, "]", "[", "label", 4, "]", "]", "[", "[", "coord", "_x_x_x_x_bach_float64_x_x_x_x_", 2623950116, 3222347077, "_x_x_x_x_bach_float64_x_x_x_x_", 3114912849, 1077329665, "]", "[", "label", 5, "]", "]", "[", "[", "coord", "_x_x_x_x_bach_float64_x_x_x_x_", 2530520537, 1074218512, "_x_x_x_x_bach_float64_x_x_x_x_", 844396499, 1076132726, "]", "[", "label", 6, "]", "]", "[", "[", "coord", "_x_x_x_x_bach_float64_x_x_x_x_", 768982721, 1076797516, "_x_x_x_x_bach_float64_x_x_x_x_", 235265958, 1075852239, "]", "[", "label", 10, "]", "]", "[", "[", "coord", "_x_x_x_x_bach_float64_x_x_x_x_", 1721360396, 1077336979, "_x_x_x_x_bach_float64_x_x_x_x_", 1540413892, 3222270070, "]", "[", "label", 12, "]", "]", "[", "[", "coord", "_x_x_x_x_bach_float64_x_x_x_x_", 75735662, 3220631788, "_x_x_x_x_bach_float64_x_x_x_x_", 2258081019, 1078155581, "]", "[", "label", 15, "]", "]", "[", "[", "coord", "_x_x_x_x_bach_float64_x_x_x_x_", 277459548, 1078045449, "_x_x_x_x_bach_float64_x_x_x_x_", 4005814715, 3223072723, "]", "[", "label", 20, "]", "]", "[", "[", "coord", "_x_x_x_x_bach_float64_x_x_x_x_", 3906124610, 1077028598, "_x_x_x_x_bach_float64_x_x_x_x_", 1511496376, 1077483843, "]", "[", "label", 30, "]", "]", "[", "[", "coord", "_x_x_x_x_bach_float64_x_x_x_x_", 2032737987, 1078101305, "_x_x_x_x_bach_float64_x_x_x_x_", 3392118997, 1076165490, "]", "[", "label", 60, "]", "]", "]", "[", "edges", "[", 1, 2, "[", "weight", "_x_x_x_x_bach_float64_x_x_x_x_", 2576980378, 1069128089, "]", "]", "[", 1, 3, "[", "weight", "_x_x_x_x_bach_float64_x_x_x_x_", 2576980378, 1069128089, "]", "]", "[", 1, 5, "[", "weight", "_x_x_x_x_bach_float64_x_x_x_x_", 2576980378, 1070176665, "]", "]", "[", 2, 4, "[", "weight", "_x_x_x_x_bach_float64_x_x_x_x_", 2576980378, 1071225241, "]", "]", "[", 2, 6, "[", "weight", "_x_x_x_x_bach_float64_x_x_x_x_", 1717986918, 1072064102, "]", "]", "[", 2, 7, "[", "weight", "_x_x_x_x_bach_float64_x_x_x_x_", 2576980378, 1069128089, "]", "]", "[", 3, 6, "[", "weight", "_x_x_x_x_bach_float64_x_x_x_x_", 0, 0, "]", "]", "[", 3, 9, "[", "weight", "_x_x_x_x_bach_float64_x_x_x_x_", 0, 0, "]", "]", "[", 4, 8, "[", "weight", "_x_x_x_x_bach_float64_x_x_x_x_", 0, 0, "]", "]", "[", 4, 10, "[", "weight", "_x_x_x_x_bach_float64_x_x_x_x_", 0, 0, "]", "]", "[", 5, 7, "[", "weight", "_x_x_x_x_bach_float64_x_x_x_x_", 0, 0, "]", "]", "[", 5, 9, "[", "weight", "_x_x_x_x_bach_float64_x_x_x_x_", 0, 0, "]", "]", "[", 6, 8, "[", "weight", "_x_x_x_x_bach_float64_x_x_x_x_", 0, 0, "]", "]", "[", 6, 11, "[", "weight", "_x_x_x_x_bach_float64_x_x_x_x_", 0, 0, "]", "]", "[", 7, 10, "[", "weight", "_x_x_x_x_bach_float64_x_x_x_x_", 0, 0, "]", "]", "[", 7, 11, "[", "weight", "_x_x_x_x_bach_float64_x_x_x_x_", 0, 0, "]", "]", "[", 8, 12, "[", "weight", "_x_x_x_x_bach_float64_x_x_x_x_", 0, 0, "]", "]", "[", 9, 11, "[", "weight", "_x_x_x_x_bach_float64_x_x_x_x_", 2576980404, 1068079513, "]", "]", "[", 10, 12, "[", "weight", "_x_x_x_x_bach_float64_x_x_x_x_", 0, 0, "]", "]", "[", 11, 12, "[", "weight", "_x_x_x_x_bach_float64_x_x_x_x_", 0, 0, "]", "]", "]" ],
									"uigraph_data_count" : [ 1 ],
									"versionnumber" : 20300,
									"zoom" : 392.476752420056584
								}

							}
, 							{
								"box" : 								{
									"border" : 0,
									"filename" : "helpdetails.js",
									"id" : "obj-2",
									"ignoreclick" : 1,
									"jsarguments" : [ "dada.graph", 80 ],
									"maxclass" : "jsui",
									"numinlets" : 1,
									"numoutlets" : 1,
									"outlettype" : [ "" ],
									"parameter_enable" : 0,
									"patching_rect" : [ 10.0, 11.0, 583.0, 112.0 ]
								}

							}
 ],
						"lines" : [ 							{
								"patchline" : 								{
									"destination" : [ "obj-3", 0 ],
									"source" : [ "obj-1", 1 ]
								}

							}
, 							{
								"patchline" : 								{
									"destination" : [ "obj-1", 0 ],
									"source" : [ "obj-11", 0 ]
								}

							}
, 							{
								"patchline" : 								{
									"destination" : [ "obj-1", 0 ],
									"source" : [ "obj-12", 0 ]
								}

							}
, 							{
								"patchline" : 								{
									"destination" : [ "obj-1", 0 ],
									"source" : [ "obj-13", 0 ]
								}

							}
, 							{
								"patchline" : 								{
									"destination" : [ "obj-1", 0 ],
									"source" : [ "obj-16", 0 ]
								}

							}
, 							{
								"patchline" : 								{
									"destination" : [ "obj-1", 0 ],
									"source" : [ "obj-18", 0 ]
								}

							}
, 							{
								"patchline" : 								{
									"destination" : [ "obj-26", 0 ],
									"source" : [ "obj-23", 0 ]
								}

							}
, 							{
								"patchline" : 								{
									"destination" : [ "obj-1", 0 ],
									"source" : [ "obj-26", 0 ]
								}

							}
, 							{
								"patchline" : 								{
									"destination" : [ "obj-23", 0 ],
									"hidden" : 1,
									"source" : [ "obj-31", 0 ]
								}

							}
, 							{
								"patchline" : 								{
									"destination" : [ "obj-1", 0 ],
									"source" : [ "obj-33", 0 ]
								}

							}
, 							{
								"patchline" : 								{
									"destination" : [ "obj-1", 0 ],
									"source" : [ "obj-5", 0 ]
								}

							}
, 							{
								"patchline" : 								{
									"destination" : [ "obj-1", 0 ],
									"source" : [ "obj-8", 0 ]
								}

							}
, 							{
								"patchline" : 								{
									"destination" : [ "obj-1", 0 ],
									"source" : [ "obj-9", 0 ]
								}

							}
 ]
					}
,
					"patching_rect" : [ 10.0, 85.0, 50.0, 22.0 ],
					"saved_object_attributes" : 					{
						"description" : "",
						"digest" : "",
						"fontsize" : 13.0,
						"globalpatchername" : "",
						"tags" : ""
					}
,
					"text" : "p basic",
					"varname" : "basic_tab"
				}

			}
, 			{
				"box" : 				{
					"border" : 0,
					"filename" : "helpname.js",
					"id" : "obj-4",
					"ignoreclick" : 1,
					"jsarguments" : [ "dada.graph" ],
					"maxclass" : "jsui",
					"numinlets" : 1,
					"numoutlets" : 1,
					"outlettype" : [ "" ],
					"parameter_enable" : 0,
					"patching_rect" : [ 10.0, 10.0, 237.41267400000001, 57.567627000000002 ]
				}

			}
, 			{
				"box" : 				{
					"fontname" : "Arial",
					"fontsize" : 12.0,
					"id" : "obj-8",
					"maxclass" : "newobj",
					"numinlets" : 0,
					"numoutlets" : 0,
					"patcher" : 					{
						"fileversion" : 1,
						"appversion" : 						{
							"major" : 8,
							"minor" : 1,
							"revision" : 11,
							"architecture" : "x64",
							"modernui" : 1
						}
,
						"classnamespace" : "box",
						"rect" : [ 0.0, 26.0, 815.0, 624.0 ],
						"bglocked" : 0,
						"openinpresentation" : 0,
						"default_fontsize" : 13.0,
						"default_fontface" : 0,
						"default_fontname" : "Arial",
						"gridonopen" : 1,
						"gridsize" : [ 5.0, 5.0 ],
						"gridsnaponopen" : 1,
						"objectsnaponopen" : 1,
						"statusbarvisible" : 2,
						"toolbarvisible" : 1,
						"lefttoolbarpinned" : 0,
						"toptoolbarpinned" : 0,
						"righttoolbarpinned" : 0,
						"bottomtoolbarpinned" : 0,
						"toolbars_unpinned_last_save" : 0,
						"tallnewobj" : 0,
						"boxanimatetime" : 200,
						"enablehscroll" : 1,
						"enablevscroll" : 1,
						"devicewidth" : 0.0,
						"description" : "",
						"digest" : "",
						"tags" : "",
						"style" : "",
						"subpatcher_template" : "",
						"showontab" : 1,
						"assistshowspatchername" : 0,
						"boxes" : [  ],
						"lines" : [  ]
					}
,
					"patching_rect" : [ 205.0, 205.0, 50.0, 22.0 ],
					"saved_object_attributes" : 					{
						"description" : "",
						"digest" : "",
						"fontsize" : 13.0,
						"globalpatchername" : "",
						"tags" : ""
					}
,
					"text" : "p ?",
					"varname" : "q_tab"
				}

			}
 ],
		"lines" : [  ],
		"parameters" : 		{
			"obj-15::obj-7::obj-8::obj-54" : [ "slider", "slider", 0 ],
			"obj-15::obj-7::obj-8::obj-59" : [ "number", "number", 0 ],
			"parameterbanks" : 			{

			}
,
			"inherited_shortname" : 1
		}
,
		"dependency_cache" : [ 			{
				"name" : "helpname.js",
				"bootpath" : "C74:/help/resources",
				"type" : "TEXT",
				"implicit" : 1
			}
, 			{
				"name" : "helpdetails.js",
				"bootpath" : "C74:/help/resources",
				"type" : "TEXT",
				"implicit" : 1
			}
, 			{
				"name" : "bach.divisors.maxpat",
				"bootpath" : "~/Documents/Max 7/Packages/bach/patchers",
				"patcherrelativepath" : "../../bach/patchers",
				"type" : "JSON",
				"implicit" : 1
			}
, 			{
				"name" : "bach.repeat.maxpat",
				"bootpath" : "~/Documents/Max 7/Packages/bach/patchers",
				"patcherrelativepath" : "../../bach/patchers",
				"type" : "JSON",
				"implicit" : 1
			}
, 			{
				"name" : "bach.reduce.maxpat",
				"bootpath" : "~/Documents/Max 7/Packages/bach/patchers",
				"patcherrelativepath" : "../../bach/patchers",
				"type" : "JSON",
				"implicit" : 1
			}
, 			{
				"name" : "bach.prepend.maxpat",
				"bootpath" : "~/Documents/Max 7/Packages/bach/patchers",
				"patcherrelativepath" : "../../bach/patchers",
				"type" : "JSON",
				"implicit" : 1
			}
, 			{
				"name" : "bach.times.maxpat",
				"bootpath" : "~/Documents/Max 7/Packages/bach/patchers",
				"patcherrelativepath" : "../../bach/patchers",
				"type" : "JSON",
				"implicit" : 1
			}
, 			{
				"name" : "bach.belong.maxpat",
				"bootpath" : "~/Documents/Max 7/Packages/bach/patchers",
				"patcherrelativepath" : "../../bach/patchers",
				"type" : "JSON",
				"implicit" : 1
			}
, 			{
				"name" : "bach.locate.maxpat",
				"bootpath" : "~/Documents/Max 7/Packages/bach/patchers",
				"patcherrelativepath" : "../../bach/patchers",
				"type" : "JSON",
				"implicit" : 1
			}
, 			{
				"name" : "helpstarter.js",
				"bootpath" : "C74:/help/resources",
				"type" : "TEXT",
				"implicit" : 1
			}
, 			{
				"name" : "dada.commons.maxpat",
				"bootpath" : "~/Documents/Max 7/Packages/dada/help",
				"patcherrelativepath" : ".",
				"type" : "JSON",
				"implicit" : 1
			}
, 			{
				"name" : "dada.commons.grid.maxpat",
				"bootpath" : "~/Documents/Max 7/Packages/dada/help",
				"patcherrelativepath" : ".",
				"type" : "JSON",
				"implicit" : 1
			}
, 			{
				"name" : "dada.graph.mxo",
				"type" : "iLaX"
			}
, 			{
				"name" : "bach.print.mxo",
				"type" : "iLaX"
			}
, 			{
				"name" : "bach.poset.mxo",
				"type" : "iLaX"
			}
, 			{
				"name" : "bach.factorize.mxo",
				"type" : "iLaX"
			}
, 			{
				"name" : "bach.mapelem.mxo",
				"type" : "iLaX"
			}
, 			{
				"name" : "bach.flat.mxo",
				"type" : "iLaX"
			}
, 			{
				"name" : "bach.collect.mxo",
				"type" : "iLaX"
			}
, 			{
				"name" : "bach.reg.mxo",
				"type" : "iLaX"
			}
, 			{
				"name" : "bach.portal.mxo",
				"type" : "iLaX"
			}
, 			{
				"name" : "bach.args.mxo",
				"type" : "iLaX"
			}
, 			{
				"name" : "bach.pick.mxo",
				"type" : "iLaX"
			}
, 			{
				"name" : "bach.comb.mxo",
				"type" : "iLaX"
			}
, 			{
				"name" : "bach.thin.mxo",
				"type" : "iLaX"
			}
, 			{
				"name" : "bach.iter.mxo",
				"type" : "iLaX"
			}
, 			{
				"name" : "bach.slice.mxo",
				"type" : "iLaX"
			}
, 			{
				"name" : "bach.join.mxo",
				"type" : "iLaX"
			}
, 			{
				"name" : "bach.wrap.mxo",
				"type" : "iLaX"
			}
, 			{
				"name" : "bach.expr.mxo",
				"type" : "iLaX"
			}
, 			{
				"name" : "bach.sort.mxo",
				"type" : "iLaX"
			}
, 			{
				"name" : "bach.intersection.mxo",
				"type" : "iLaX"
			}
, 			{
				"name" : "bach.length.mxo",
				"type" : "iLaX"
			}
, 			{
				"name" : "bach.eq.mxo",
				"type" : "iLaX"
			}
, 			{
				"name" : "bach.pack.mxo",
				"type" : "iLaX"
			}
, 			{
				"name" : "bach.find.mxo",
				"type" : "iLaX"
			}
, 			{
				"name" : "bach.post.mxo",
				"type" : "iLaX"
			}
, 			{
				"name" : "dada.cartesian.mxo",
				"type" : "iLaX"
			}
, 			{
				"name" : "dada.base.mxo",
				"type" : "iLaX"
			}
 ],
		"autosave" : 0
	}

}
